PathFileType	4	(X/Y/Z)	E:\Marcel_BSc\Ayumi_22_01_2025\22-01-2025\sumo_dl_3.trc
DataRate	CameraRate	NumFrames	NumMarkers	Units	OrigDataRate	OrigDataStartFrame	OrigNumFrames
200.0	200.0	4	47	mm	200.0	2045	2336	
Frame#	Time	FHD			LBHD			RBHD			RBAR			LBAR			RSACR			LSACR			USACR			C7			CLAV			T10			RSHO			LSHO			LTHI1			LTHI3			LTHI2			LTIB1			LTIB2			LTIB3			LMMAL			LLMAL			LHEE			LMT1			LMT5			LMT3			RTHI1			RTHI2			RTHI3			RTIB1			RTIB3			RTIB2			RLMAL			RMMAL			RHEE			RMT5			RMT1			RMT3			LDUPA			LMUPA			LUUPA			LRAD			RUL			RUFIN			RRAD			RMUPA			RDUPA			RUUPA			
		X1	Y1	Z1	X2	Y2	Z2	X3	Y3	Z3	X4	Y4	Z4	X5	Y5	Z5	X6	Y6	Z6	X7	Y7	Z7	X8	Y8	Z8	X9	Y9	Z9	X10	Y10	Z10	X11	Y11	Z11	X12	Y12	Z12	X13	Y13	Z13	X14	Y14	Z14	X15	Y15	Z15	X16	Y16	Z16	X17	Y17	Z17	X18	Y18	Z18	X19	Y19	Z19	X20	Y20	Z20	X21	Y21	Z21	X22	Y22	Z22	X23	Y23	Z23	X24	Y24	Z24	X25	Y25	Z25	X26	Y26	Z26	X27	Y27	Z27	X28	Y28	Z28	X29	Y29	Z29	X30	Y30	Z30	X31	Y31	Z31	X32	Y32	Z32	X33	Y33	Z33	X34	Y34	Z34	X35	Y35	Z35	X36	Y36	Z36	X37	Y37	Z37	X38	Y38	Z38	X39	Y39	Z39	X40	Y40	Z40	X41	Y41	Z41	X42	Y42	Z42	X43	Y43	Z43	X44	Y44	Z44	X45	Y45	Z45	X46	Y46	Z46	X47	Y47	Z47	
2045	10.215	37.218506	1482.1339	-998.57831	49.311054	1463.6404	-937.75555	72.048714	1443.9312	-1068.3541	257.84787	236.67831	-2120.6636	251.80548	249.57243	100.3875	433.97647	890.57092	-1031.2947	437.28989	894.62018	-958.61383	427.62189	903.56146	-994.38678	209.06737	1282.682	-988.24768	115.689	1160.71	-996.06195	358.44461	1057.0443	-998.51019	136.44867	1223.2969	-1158.7814	147.46167	1218.5266	-829.18488	376.15881	577.74133	-715.9743	372.85175	512.55817	-706.16736	333.43292	536.62256	-685.44049	328.03354	245.81943	-566.43652	367.79678	228.89804	-592.73889	338.73642	181.811	-558.04425	278.43942	70.150841	-583.07892	334.50159	71.795586	-532.15509	342.42728	31.410311	-583.52332	183.7119	45.925365	-470.42114				201.88318	41.71032	-441.01175	381.05728	570.96991	-1256.6299	337.86484	534.00372	-1290.084	375.65384	508.03363	-1268.8031	342.73471	278.12799	-1399.1743	353.85321	213.79115	-1406.3877	380.16263	261.89059	-1369.4337	353.04736	73.083519	-1445.431	279.60544	71.278786	-1411.5409	352.98129	30.521061	-1389.0649	273.89786	26.244341	-1562.4031	215.83992	36.903736	-1531.0546	238.31766	34.227829	-1552.3065	287.66287	1087.4844	-710.78912	238.85081	1089.3506	-700.35602	233.59109	1140.5209	-735.4494	254.94537	855.83551	-476.75073	326.78281	853.75598	-1464.63	264.54575	785.97272	-1487.9418	276.15802	827.79346	-1439.1078	243.38434	1166.0656	-1235.4574	266.68848	1121.0144	-1271.3972	286.52432	1170.6158	-1212.4388
2046	10.22	38.957199	1484.4285	-998.3443	51.191998	1465.7897	-937.56372	73.785233	1446.2626	-1068.1953	257.85577	236.67621	-2120.6667	251.81812	249.57085	100.39067	432.49091	890.71558	-1030.9358	436.13388	894.80658	-958.50745	426.49698	903.68805	-994.32983	210.79251	1284.3433	-988.35101	116.46602	1163.1003	-996.08514	358.40451	1057.4602	-998.53052	138.01241	1225.95	-1158.6682	148.84898	1221.3011	-829.41846	375.44962	577.87048	-716.21777	372.32736	512.71368	-706.49194	332.93906	536.58533	-685.60889	328.38449	246.24216	-566.25818	367.7757	228.88478	-592.98193	338.70258	181.83423	-558.23486	278.47028	70.097176	-583.09192	334.47675	71.798431	-532.2276	342.43381	31.36722	-583.53894	183.7124	45.943882	-470.4072				201.87195	41.717579	-441.00055	380.07462	571.10895	-1255.6854	337.14154	533.79254	-1289.2301	375.5192	507.55286	-1268.1189	342.71039	278.0365	-1398.502	353.85751	213.72241	-1405.8871	380.14523	261.77936	-1368.8793	353.07925	73.067368	-1445.3037	279.58963	71.262291	-1411.4719	353.03665	30.286022	-1389.5273	273.88574	26.257748	-1562.3787	215.82318	36.921776	-1531.0387	238.29926	34.234612	-1552.2756	288.38507	1091.0848	-709.67963	239.67711	1093.7539	-698.88751	234.7547	1144.3257	-734.85754	255.47734	863.43939	-471.65579	327.99066	859.64337	-1469.2341	265.53384	792.55182	-1494.2153	277.42792	833.34216	-1444.5918	244.68561	1169.3226	-1235.6042	267.78906	1124.3397	-1271.9696	287.69366	1172.7621	-1212.1007
2047	10.225	40.718887	1486.6226	-998.159	52.940105	1467.9642	-937.42786	75.503922	1448.5233	-1068.0586	257.86847	236.69	-2120.6748	251.82768	249.58173	100.39684	431.42496	890.9873	-1030.8247	435.14764	894.89941	-958.47443	425.56357	903.63458	-994.3429	212.47749	1286.0081	-988.42731	117.26689	1165.5557	-996.01764	358.2507	1057.9823	-998.49835	139.48282	1228.7404	-1158.5278	150.2863	1224.1113	-829.61835	375.51263	578.74554	-715.9671	371.86127	512.86395	-706.84528	332.36371	536.91992	-685.16644	328.11597	245.83102	-566.91052	367.75565	228.87711	-593.23877	338.68369	181.84558	-558.42761	278.47037	70.056709	-583.17682	334.47415	71.816032	-532.30048	342.43823	31.349749	-583.56989	183.70659	45.962345	-470.40448				201.86211	41.718124	-440.99734	379.08545	570.7948	-1254.8701	336.48569	533.56598	-1288.3923	374.52948	508.09891	-1266.4	342.71567	277.96695	-1397.8184	353.8569	213.70107	-1405.3845	380.19818	261.68066	-1368.2531	353.09265	73.037605	-1445.1074	279.59222	71.270782	-1411.3685	353.04083	30.265266	-1389.4868	273.90042	26.208641	-1562.3215	215.84274	36.987373	-1530.996	238.25783	34.239651	-1552.2418	289.04935	1094.7318	-708.58154	240.49962	1098.1807	-697.45026	235.88463	1148.1616	-734.29108	256.05139	871.14203	-466.52386	328.88058	865.20386	-1473.4313	266.55807	798.78076	-1499.5846	278.01974	839.08716	-1449.6891	245.89008	1172.4734	-1235.4996	268.83395	1127.6523	-1272.5519	288.82166	1174.9674	-1211.7015
2048	10.23	42.483109	1488.7611	-997.94171	54.880131	1469.8859	-937.18439	77.149574	1450.7814	-1067.9968	257.87643	236.71437	-2120.6743	251.83646	249.59589	100.41715	430.36923	891.12836	-1030.7656	434.14645	894.81122	-958.46124	424.4072	903.77222	-994.28644	214.18236	1287.6884	-988.56805	118.07343	1167.8828	-996.0733	358.26059	1058.2568	-998.53369	141.00517	1231.5443	-1158.3542	151.63338	1227.0737	-829.80823	374.17548	578.38245	-716.612	371.48315	513.02759	-707.17291	331.95166	536.49561	-685.97845	328.16055	245.81067	-567.13654	367.76035	228.80699	-593.48499	338.66574	181.84523	-558.60364	278.47571	70.002777	-583.20776	334.46405	71.829002	-532.3728	342.43582	31.323921	-583.57806	183.69769	45.946434	-470.41937				201.90063	41.704556	-441.04495	378.08603	571.06024	-1253.915	335.81555	533.21478	-1287.6234	374.01526	507.99506	-1266.1223	342.99713	277.36743	-1397.2089	353.88153	213.69722	-1404.9127	380.25476	261.51053	-1367.7888	353.06674	73.020752	-1444.9539	279.66275	71.193764	-1411.2064	353.01678	30.237719	-1389.4438	273.87994	26.24081	-1562.3041	215.84142	36.996128	-1530.9584	238.24437	34.254833	-1552.2117	289.76306	1098.3707	-707.47833	241.34735	1102.5607	-696.04651	237.09314	1151.8695	-733.76184	256.93286	878.82416	-461.54099	329.75018	871.25885	-1477.6525	267.50345	805.66162	-1505.8541	278.59857	844.94177	-1454.8057	247.21336	1175.2711	-1235.5123	269.69495	1131.234	-1273.0499	289.97971	1177.0129	-1211.373
